<svg id="visual" viewBox="0 0 960 300" width="960" height="300" xmlns="http://www.w3.org/2000/svg" xmlns:xlink="http://www.w3.org/1999/xlink" version="1.1"><rect x="0" y="0" width="960" height="300" fill="#002233"></rect><path d="M0 200L22.8 200.5C45.7 201 91.3 202 137 202C182.7 202 228.3 201 274 207.5C319.7 214 365.3 228 411.2 230.8C457 233.7 503 225.3 548.8 221.8C594.7 218.3 640.3 219.7 686 223.2C731.7 226.7 777.3 232.3 823 235.5C868.7 238.7 914.3 239.3 937.2 239.7L960 240L960 301L937.2 301C914.3 301 868.7 301 823 301C777.3 301 731.7 301 686 301C640.3 301 594.7 301 548.8 301C503 301 457 301 411.2 301C365.3 301 319.7 301 274 301C228.3 301 182.7 301 137 301C91.3 301 45.7 301 22.8 301L0 301Z" fill="#0066FF" stroke-linecap="round" stroke-linejoin="miter"></path></svg>